<?xml version="1.0" encoding="UTF-8"?>
<svg xmlns="http://www.w3.org/2000/svg" viewBox="0 0 100 100">
    <style>
        /* Estilos por defecto para móvil */
        .mobile-version { display: block; }
        .desktop-version { display: none; }

        /* Cambiar a versión escritorio en pantallas anchas */
        @media (min-width: 768px) {
            .mobile-version { display: none; }
            .desktop-version { display: block; }
            /* Cambiar viewBox para versión escritorio */
            svg { viewBox: 0 0 200 100; }
        }

        path, polygon {
            fill: #FFF;
        }

        @media (prefers-color-scheme: dark) {
            path, polygon {
                fill: #FFF;
            }
        }
    </style>

    <!-- Versión móvil (original 100x100) -->
    <g class="mobile-version" id="mobile">
        <g id="mobile-normal">
            <g id="mobile-b">
                <path d="M70.64,85.57c-.73.61-1.37,1.49-2.1,2.09-.4.33-.7.57-.87-.07-.27-1.02-.23-2.12-1.03-2.97-.6-.65-1.53-.47-1.87.34-.49,1.15-.5,2.78-.09,3.96.26.74.91,1.37.99,2.16.09.91-.28,1.95-.59,2.8-.36,1.01-.78,1.99-1.78,2.51-.54.28-.86.17-1.18-.34-1.11-1.75-1.21-5.65-1.06-7.69.04-.61.37-1.78-.38-2.07-.89-.34-1.31.48-1.41,1.22-.17,1.25-.12,2.36-.4,3.65-.3,1.39-1.1,3.88-1.87,5.05-.36.55-.88.34-1.09-.2-.54-1.36-.43-3.53-.4-5.01.03-1.28.34-3.83-.01-4.97-.16-.53-.72-.98-1.21-.53-.14.13-.47.57-.61.75-.44.56-.82,1.18-1.27,1.74-.29.35-.92.82-.9,1.27,0,.16.1.26.13.39.09.41.06.6-.16.95-.49.81-2.13,2.87-2.84,3.46-.29.24-1.43,1.11-1.58.35-.03-.12.05-.79.08-.95.17-.92.79-2.41,1.14-3.33.4-1.07.87-2.12,1.28-3.19.16-.86-.85-.85-1.39-.54-.32.19-.47.45-.63.78-.61,1.31-.97,2.81-1.74,4.05-.56.9-1.71,2.16-2.53,2.83-.36.3-.92.57-.97-.12.52-2.01,1.39-3.96,1.97-5.94.12-.4.39-1.31.35-1.69-.05-.42-.43-.7-.84-.63-1.63.29-3.1,3.02-4.16,4.17-.1.11-.24.29-.4.28-.09-.09.39-1.63.44-1.89.17-.82.52-3.08-.8-3.08-1.24,0-1.72.73-2.15.98-.28.16-5.95,5.52-6.75,6.25-.08.08-.21.13-.34.13-.11,0-.21-.04-.27-.1-.2-.17-.14-.58-.06-1.03l.02-.11c.24-1.44.69-2.43,1.5-3.87.29-.52.65-1.08,1.02-1.64.55-.86,1.13-1.75,1.48-2.54.14-.32.18-.57.14-.87-.02-.08-.07-.15-.13-.23-.08-.12-.19-.26-.15-.45.04-.24.22-.4.38-.55.07-.06.14-.12.19-.18.79-.92,1.37-2.71.94-3.8-.22-.56-.67-.88-1.35-.96-.18-.02-.35-.02-.53-.02-4.34,0-8.6,5.63-9.8,7.36-2.14,3.08-4.54,7.08-4.11,10.63.06.48.32.94.7,1.28.36.34.84.56,1.32.56,1.09-.01,2.93-1.45,3.75-2.2.13-.12.28-.28.42-.44.23-.25.47-.51.68-.66.11-.09.23-.13.33-.13.08,0,.28.03.33.36.06.35.04.74.01,1.12-.05.86-.1,1.68.7,2.17.27.17.54.26.81.26.69,0,1.3-.52,1.9-1.03,0,0,7.38-7.09,7.58-7.17.07-.03.12-.03.19-.03.14.13-.74,3.26-.86,3.68-.49,1.68-1.11,3.32-1.67,4.97-.04.48.52.88.97.69.86-.38,1.73-2.17,2.27-3,.93-1.43,1.89-2.84,2.82-4.28.09-.14.48-.4.41-.07-.16.82-.6,1.77-.82,2.61-.33,1.27-.86,3.84,1.32,3.34,1.08-.25,1.83-1.29,2.68-1.89.72-.52.54.15.61.6.16,1.05.85,1.83,1.98,1.57,1.62-.36,4.16-3.35,5.21-4.67.27-.33.6-.92.88-1.19.57-.53.35.73.35.96-.01.69.05,1.39.05,2.07.02,1.57-.26,3.16.85,4.43.63.73,1.22.92,2.1.41s1.6-1.74,2-2.66c.27-.63.37-1.4.86-1.87.08,0,.3.98.34,1.12.38,1.2,1.04,2.82,2.37,3.19,2.88.81,4.51-3.6,5.01-5.72.18-.76.21-2.01.73-2.57.17-.19.43-.35.61-.52.89-.86,2.22-2.22,2.64-3.39.18-.51-.27-.72-.68-.49ZM22.01,93.15c-.1.07-.23.16-.37.16l-.11-.02h-.03c-.14-.08-.4-.45-.38-.66.84-3.25,2.61-6.45,5.4-9.78l.07-.08c1.06-1.27,2.51-3.01,4.05-3.69.08-.04.81-.34,1.02-.36h.08c.12,0,.22.04.33.17.13.44-.11.78-.32,1.09-.16.24-.32.46-.32.72,0,.14.11.34.19.52.12.23.22.43.15.59-.04.09-.14.17-.28.29-.07.04-.13.09-.16.12-.51.55-.91,1.19-1.3,1.81-.18.29-.36.59-.56.87-1.5,2.19-4.46,6.17-7.46,8.25Z"/>
                <path d="M81.26,90.4c-.04-.16-.17-.28-.38-.36-.71-.25-1.21.19-1.64.58-.06.05-.11.1-.17.15-.37.31-.75.69-1.11,1.06-.55.54-1.1,1.1-1.64,1.49-.23.17-.29.13-.29.13,0,0-.12-.08.05-.76.16-.7.47-1.42.97-2.28.1-.17.27-.43.45-.7.45-.66.95-1.41,1.01-1.8.02-.13.01-.27.01-.4-.01-.11-.01-.22-.01-.31.03-.31.2-.57.38-.84.18-.28.37-.56.45-.94.16-.74.1-1.27-.19-1.6-.24-.28-.63-.41-1.18-.41-.08,0-.16.01-.24.01-1.57.12-3.3,1.3-5.12,3.5-.89,1.08-3.78,4.81-3.45,7.7.06.6.29,1.03.67,1.26.39.24.92.25,1.54.03.31-.13.75-.42,1.34-.88.1-.08.24-.22.39-.37.2-.19.45-.44.56-.49.04-.02.07-.02.09-.02.02,0,.04.05.05.09.04.19.03.4.02.62-.01.47-.04,1.01.56,1.41.22.15.43.21.63.21.55,0,1.04-.43,1.43-.78l.16-.14c1.95-1.68,3.36-3.05,4.19-4.08.23-.29.57-.72.47-1.08ZM77.07,86.81c.03.15.05.25-.15.56-.79,1.28-2.04,2.85-2.54,3.46-.94,1.16-2.33,2.65-3.17,3.07-.08.04-.15.06-.18.04-.02-.01-.09-.08-.06-.43.1-.92,1.41-3.17,1.94-3.96.65-.96,2.92-3.81,4.07-4.04.12-.01.23-.01.33,0,.02.12-.03.23-.11.39-.07.13-.15.27-.16.44-.03.22,0,.36.03.47Z"/>
                <path d="M50.27,81.44c.33-.02.56.23.61.54.14.84-.83,2.13-1.71,2.13-1.13,0-.54-1.49-.12-2,.26-.31.81-.65,1.21-.67h0Z"/>
            </g>
            <g id="mobile-c">
                <g id="mobile-d">
                    <polygon points="50.25 73.2 59.13 30.12 40.98 24.63 42.76 73.29 38 73.56 18.73 1.54 18.85 1.24 81.13 10.55 55.59 73.53 50.25 73.2"/>
                </g>
            </g>
        </g>
    </g>

    <!-- Versión escritorio (200x100) -->
    <g class="desktop-version" id="desktop">
        <g id="desktop-b">
            <polygon points="43.39 99.28 55.61 39.98 30.63 32.42 33.08 99.4 26.52 99.77 0 .64 .17 .23 85.89 13.04 50.74 99.73 43.39 99.28"/>
        </g>
        <path d="M177.95,70.8c-1.62,1.35-3.03,3.3-4.65,4.62-.88.73-1.55,1.26-1.93-.15-.6-2.26-.51-4.69-2.28-6.57-1.33-1.44-3.39-1.04-4.14.75-1.08,2.54-1.11,6.15-.2,8.76.58,1.64,2.01,3.03,2.19,4.78.2,2.01-.62,4.31-1.31,6.2-.8,2.23-1.73,4.4-3.94,5.55-1.19.62-1.9.38-2.61-.75-2.46-3.87-2.68-12.5-2.35-17.02.09-1.35.82-3.94-.84-4.58-1.97-.75-2.9,1.06-3.12,2.7-.38,2.77-.27,5.22-.89,8.08-.66,3.08-2.43,8.59-4.14,11.17-.8,1.22-1.95.75-2.41-.44-1.19-3.01-.95-7.81-.88-11.09.07-2.83.75-8.47-.02-11-.35-1.17-1.59-2.17-2.68-1.17-.31.29-1.04,1.26-1.35,1.66-.97,1.24-1.81,2.61-2.81,3.85-.64.77-2.04,1.81-1.99,2.81,0,.35.22.58.29.86.2.91.13,1.33-.35,2.1-1.08,1.79-4.71,6.35-6.28,7.66-.64.53-3.16,2.46-3.5.77-.07-.27.11-1.75.18-2.1.38-2.04,1.75-5.33,2.52-7.37.89-2.37,1.93-4.69,2.83-7.06.35-1.9-1.88-1.88-3.08-1.19-.71.42-1.04,1-1.39,1.73-1.35,2.9-2.15,6.22-3.85,8.96-1.24,1.99-3.78,4.78-5.6,6.26-.8.66-2.04,1.26-2.15-.27,1.15-4.45,3.08-8.76,4.36-13.14.27-.89.86-2.9.77-3.74-.11-.93-.95-1.55-1.86-1.39-3.61.64-6.86,6.68-9.2,9.23-.22.24-.53.64-.89.62-.2-.2.86-3.61.97-4.18.38-1.81,1.15-6.82-1.77-6.82-2.73,0-3.81,1.62-4.76,2.17-.62.35-13.17,12.21-14.94,13.83-.18.18-.46.29-.75.29-.24,0-.46-.09-.6-.22-.44-.38-.31-1.28-.13-2.28l.04-.24c.53-3.19,1.53-5.38,3.32-8.56.64-1.15,1.44-2.39,2.26-3.63,1.22-1.9,2.5-3.87,3.27-5.62.31-.71.4-1.26.31-1.93-.04-.18-.15-.33-.29-.51-.18-.27-.42-.58-.33-1,.09-.53.49-.88.84-1.22.15-.13.31-.27.42-.4,1.75-2.04,3.03-6,2.08-8.41-.49-1.24-1.48-1.95-2.99-2.12-.4-.04-.77-.04-1.17-.04-9.6,0-19.03,12.46-21.68,16.29-4.74,6.81-10.05,15.67-9.09,23.52.13,1.06.71,2.08,1.55,2.83.8.75,1.86,1.24,2.92,1.24,2.41-.02,6.48-3.21,8.3-4.87.29-.27.62-.62.93-.97.51-.55,1.04-1.13,1.5-1.46.24-.2.51-.29.73-.29.18,0,.62.07.73.8.13.77.09,1.64.02,2.48-.11,1.9-.22,3.72,1.55,4.8.6.38,1.19.58,1.79.58,1.53,0,2.88-1.15,4.2-2.28,0,0,16.33-15.69,16.77-15.86.15-.07.27-.07.42-.07.31.29-1.64,7.21-1.9,8.14-1.08,3.72-2.46,7.35-3.7,11-.09,1.06,1.15,1.95,2.15,1.53,1.9-.84,3.83-4.8,5.02-6.64,2.06-3.16,4.18-6.28,6.24-9.47.2-.31,1.06-.89.91-.15-.35,1.81-1.33,3.92-1.81,5.78-.73,2.81-1.9,8.5,2.92,7.39,2.39-.55,4.05-2.85,5.93-4.18,1.59-1.15,1.19.33,1.35,1.33.35,2.32,1.88,4.05,4.38,3.47,3.58-.8,9.2-7.41,11.53-10.33.6-.73,1.33-2.04,1.95-2.63,1.26-1.17.77,1.62.77,2.12-.02,1.53.11,3.08.11,4.58.04,3.47-.58,6.99,1.88,9.8,1.39,1.62,2.7,2.04,4.65.91s3.54-3.85,4.43-5.89c.6-1.39.82-3.1,1.9-4.14.18,0,.66,2.17.75,2.48.84,2.66,2.3,6.24,5.24,7.06,6.37,1.79,9.98-7.97,11.09-12.66.4-1.68.46-4.45,1.62-5.69.38-.42.95-.77,1.35-1.15,1.97-1.9,4.91-4.91,5.84-7.5.4-1.13-.6-1.59-1.5-1.08ZM70.34,87.57c-.22.15-.51.35-.82.35l-.24-.04-.07-.02c-.31-.15-.89-.97-.84-1.44,1.86-7.19,5.78-14.27,11.95-21.64l.15-.18c2.35-2.81,5.55-6.66,8.96-8.16.18-.09,1.79-.75,2.26-.8h.18c.27,0,.49.09.73.38.29.97-.24,1.73-.71,2.41-.35.53-.71,1.02-.71,1.59,0,.31.24.75.42,1.15.27.51.49.95.33,1.31-.09.2-.31.38-.62.64-.15.09-.29.2-.35.27-1.13,1.22-2.01,2.63-2.88,4.01-.4.64-.8,1.31-1.24,1.93-3.32,4.85-9.87,13.65-16.51,18.25Z"/>
        <path d="M201.44,81.49c-.09-.35-.38-.62-.84-.8-1.57-.55-2.68.42-3.63,1.28-.13.11-.24.22-.38.33-.82.69-1.66,1.53-2.46,2.35-1.22,1.19-2.43,2.43-3.63,3.3-.51.38-.64.29-.64.29-.02,0-.27-.18.11-1.68.35-1.55,1.04-3.14,2.15-5.04.22-.38.6-.95,1-1.55,1-1.46,2.1-3.12,2.23-3.98.04-.29.02-.6.02-.88-.02-.24-.02-.49-.02-.69.07-.69.44-1.26.84-1.86.4-.62.82-1.24,1-2.08.35-1.64.22-2.81-.42-3.54-.53-.62-1.39-.91-2.61-.91-.18,0-.35.02-.53.02-3.47.27-7.3,2.88-11.33,7.74-1.97,2.39-8.36,10.64-7.63,17.04.13,1.33.64,2.28,1.48,2.79.86.53,2.04.55,3.41.07.69-.29,1.66-.93,2.97-1.95.22-.18.53-.49.86-.82.44-.42,1-.97,1.24-1.08.09-.04.15-.04.2-.04.04.02.09.11.11.2.09.42.07.89.04,1.37-.02,1.04-.09,2.23,1.24,3.12.49.33.95.46,1.39.46,1.22,0,2.3-.95,3.16-1.73l.35-.31c4.31-3.72,7.43-6.75,9.27-9.03.51-.64,1.26-1.59,1.04-2.39ZM192.17,73.54c.07.33.11.55-.33,1.24-1.75,2.83-4.51,6.31-5.62,7.66-2.08,2.57-5.16,5.86-7.01,6.79-.18.09-.33.13-.4.09-.04-.02-.2-.18-.13-.95.22-2.04,3.12-7.01,4.29-8.76,1.44-2.12,6.46-8.43,9.01-8.94.27-.02.51-.02.73,0,.04.27-.07.51-.24.86-.15.29-.33.6-.35.97-.07.49,0,.8.07,1.04Z"/>
        <path d="M132.87,61.66c.73-.04,1.24.51,1.35,1.19.31,1.86-1.84,4.71-3.78,4.71-2.5,0-1.19-3.3-.27-4.43.58-.69,1.79-1.44,2.68-1.48h.02Z"/>
    </g>
</svg>
