<?xml version="1.0" encoding="UTF-8"?><svg xmlns="http://www.w3.org/2000/svg" xmlns:xlink="http://www.w3.org/1999/xlink" viewBox="0 0 32 32"><defs><radialGradient id="b" cx="16.33" cy="31.16" fx="16.33" fy="31.16" r="35.19" gradientTransform="translate(-.53 -.52) scale(1.03)" gradientUnits="userSpaceOnUse"><stop offset=".5" stop-color="#1a1a1a"/><stop offset=".85" stop-color="#333"/></radialGradient><radialGradient id="c" cx="23.68" cy="6" fx="23.68" fy="6" r="14.4" gradientUnits="userSpaceOnUse"><stop offset=".09" stop-color="#fff"/><stop offset=".09" stop-color="#f8f8f8"/><stop offset=".13" stop-color="#cfcfcf"/><stop offset=".18" stop-color="#aaa"/><stop offset=".23" stop-color="#898989"/><stop offset=".29" stop-color="#6e6e6e"/><stop offset=".35" stop-color="#585858"/><stop offset=".42" stop-color="#474747"/><stop offset=".52" stop-color="#3b3b3b"/><stop offset=".64" stop-color="#343434"/><stop offset="1" stop-color="#333"/></radialGradient></defs><g style="isolation:isolate;"><g id="a"><path d="M16,0C1.76,0,0,1.77,0,16s1.76,16,16,16,16-1.77,16-16S30.23,0,16,0ZM17.76,27.23l-1.66-.1,2.76-13.39-5.64-1.71.55,15.13-1.48.08L6.3,4.85l.04-.09,19.36,2.89-7.94,19.58Z" style="fill:url(#b);"/><path d="M16,0C1.76,0,0,1.77,0,16s1.76,16,16,16,16-1.77,16-16S30.23,0,16,0ZM17.76,27.23l-1.66-.1,2.76-13.39-5.64-1.71.55,15.13-1.48.08L6.3,4.85l.04-.09,19.36,2.89-7.94,19.58Z" style="fill:url(#c); mix-blend-mode:multiply; opacity:.5;"/></g></g></svg>