<?xml version="1.0" encoding="UTF-8"?><svg xmlns="http://www.w3.org/2000/svg" xmlns:xlink="http://www.w3.org/1999/xlink" viewBox="0 0 32 32"><defs><radialGradient id="b" cx="15.17" cy="31.15" fx="15.17" fy="31.15" r="35.19" gradientTransform="translate(.68 -.51) scale(1.03)" gradientUnits="userSpaceOnUse"><stop offset=".5" stop-color="#ccc"/><stop offset=".85" stop-color="#fff"/></radialGradient><radialGradient id="c" cx="23.68" cy="6" fx="23.68" fy="6" r="14.4" gradientUnits="userSpaceOnUse"><stop offset=".09" stop-color="#fff"/><stop offset=".22" stop-color="#fff"/><stop offset="1" stop-color="#fff"/></radialGradient></defs><g style="isolation:isolate;"><g id="a"><path d="M16,0C1.76,0,0,1.77,0,16s1.76,16,16,16,16-1.77,16-16S30.23,0,16,0ZM17.76,27.23l-1.66-.1,2.76-13.39-5.64-1.71.55,15.13-1.48.08L6.3,4.85l.04-.09,19.36,2.89-7.94,19.58Z" style="fill:url(#b);"/><path d="M16,0C1.76,0,0,1.77,0,16s1.76,16,16,16,16-1.77,16-16S30.23,0,16,0ZM17.76,27.23l-1.66-.1,2.76-13.39-5.64-1.71.55,15.13-1.48.08L6.3,4.85l.04-.09,19.36,2.89-7.94,19.58Z" style="fill:url(#c); mix-blend-mode:multiply; opacity:.5;"/></g></g></svg>